<svg width="1440" height="1550" viewBox="0 0 1440 1550" fill="none" xmlns="http://www.w3.org/2000/svg">
<g filter="url(#filter0_f_2_694)">
<circle r="121" transform="matrix(1 0 0 -1 135 929)" fill="#22B5BE"/>
</g>
<g filter="url(#filter1_f_2_694)">
<circle r="170.5" transform="matrix(1 0 0 -1 170.5 170.5)" fill="#7C3EFF"/>
</g>
<g filter="url(#filter2_f_2_694)">
<circle r="150" transform="matrix(1 0 0 -1 1290 150)" fill="#BE229C"/>
</g>
<g filter="url(#filter3_f_2_694)">
<circle r="112.5" transform="matrix(1 0 0 -1 1327.5 929.5)" fill="#FFC93E"/>
</g>
<path d="M1143 144L1146.49 166.194L1168.68 162.657L1148.65 172.836L1158.87 192.843L1143 176.94L1127.13 192.843L1137.35 172.836L1117.32 162.657L1139.51 166.194L1143 144Z" fill="white"/>
<path d="M66 246L69.4914 268.194L91.6785 264.657L71.6493 274.836L81.8702 294.843L66 278.94L50.1298 294.843L60.3507 274.836L40.3215 264.657L62.5086 268.194L66 246Z" fill="white"/>
<defs>
<filter id="filter0_f_2_694" x="-486" y="308" width="1242" height="1242" filterUnits="userSpaceOnUse" color-interpolation-filters="sRGB">
<feFlood flood-opacity="0" result="BackgroundImageFix"/>
<feBlend mode="normal" in="SourceGraphic" in2="BackgroundImageFix" result="shape"/>
<feGaussianBlur stdDeviation="250" result="effect1_foregroundBlur_2_694"/>
</filter>
<filter id="filter1_f_2_694" x="-500" y="-500" width="1341" height="1341" filterUnits="userSpaceOnUse" color-interpolation-filters="sRGB">
<feFlood flood-opacity="0" result="BackgroundImageFix"/>
<feBlend mode="normal" in="SourceGraphic" in2="BackgroundImageFix" result="shape"/>
<feGaussianBlur stdDeviation="250" result="effect1_foregroundBlur_2_694"/>
</filter>
<filter id="filter2_f_2_694" x="640" y="-500" width="1300" height="1300" filterUnits="userSpaceOnUse" color-interpolation-filters="sRGB">
<feFlood flood-opacity="0" result="BackgroundImageFix"/>
<feBlend mode="normal" in="SourceGraphic" in2="BackgroundImageFix" result="shape"/>
<feGaussianBlur stdDeviation="250" result="effect1_foregroundBlur_2_694"/>
</filter>
<filter id="filter3_f_2_694" x="715" y="317" width="1225" height="1225" filterUnits="userSpaceOnUse" color-interpolation-filters="sRGB">
<feFlood flood-opacity="0" result="BackgroundImageFix"/>
<feBlend mode="normal" in="SourceGraphic" in2="BackgroundImageFix" result="shape"/>
<feGaussianBlur stdDeviation="250" result="effect1_foregroundBlur_2_694"/>
</filter>
</defs>
</svg>
