<svg xmlns="http://www.w3.org/2000/svg" viewBox="0 0 2500.32 514.49"><g id="Layer_1" data-name="Layer 1"><path d="M1295.83,1509.16a188.11,188.11,0,0,1,71,13.5,171.68,171.68,0,0,1,57.9,37.86q24.36,24.39,38.73,60.51t14.37,79.65q0,86.19-52.23,139.29t-129.72,53.1q-90.54,0-149.73-78.35l40.05,72.26H1084.29a22.32,22.32,0,0,1-21.76-21.77V1378.58h82.7a45.69,45.69,0,0,1,23.94,6.53,47.32,47.32,0,0,1,23.07,40.48v121.88Q1229.67,1509.16,1295.83,1509.16Zm50.5,191.52q0-40.9-21.77-64.42t-55.71-23.5q-34,0-56.15,23.5t-22.2,64.42q0,40.93,22.2,64.86t56.15,23.94q33.95,0,55.71-23.94T1346.33,1700.68Z" transform="translate(-1062.53 -1378.58)" style="fill:#603913"/><path d="M1530.88,1378.58h94.89a33,33,0,0,1,24.81,10.45,34.17,34.17,0,0,1,10,24.37V1887h-98.37a31.21,31.21,0,0,1-31.34-31.34Z" transform="translate(-1062.53 -1378.58)" style="fill:#603913"/><path d="M1923.48,1893.07q-91.39,0-150.6-54.41t-59.2-138q0-83.57,59.2-137.54t150.6-54q91.41,0,150.17,54t58.77,137.54q0,84.45-58.77,138.42T1923.48,1893.07Zm0-103.59q34,0,55.72-23.51t21.76-65.29q0-40.9-21.76-64.42t-55.72-23.5q-33.95,0-56.15,23.5t-22.19,64.42q0,40.93,22.19,64.86T1923.48,1789.48Z" transform="translate(-1062.53 -1378.58)" style="fill:#603913"/><path d="M2668.66,1509.16q44.4,0,77.48,17t52.67,54.84q19.59,37.88,19.59,93.59V1887H2688.69V1695.46q0-75.74-56.59-75.74-19.16,0-33.52,8.71T2576,1655.85q-8.28,18.72-8.27,46.57v146.25a38.65,38.65,0,0,1-38.3,38.31H2437.1V1695.46q0-75.74-55.72-75.74-30.48,0-48.31,20.89t-17.85,61.81v155a29.72,29.72,0,0,1-29.6,29.6H2185.51V1549.21a31.28,31.28,0,0,1,10-23.51,33.42,33.42,0,0,1,23.94-9.57h89.67l-41.79,71.38q69.64-78.35,153.22-78.35,56.58,0,93.15,29.6-17.43,33.95-23.51,60.07Q2545,1509.18,2668.66,1509.16Z" transform="translate(-1062.53 -1378.58)" style="fill:#603913"/><path d="M3050.83,1509.16q189.77,0,189.78,171.5V1887h-90.54a28.79,28.79,0,0,1-21.76-9.14,31,31,0,0,1-8.71-22.2V1839.1q-28.72,54-109.69,54-65.29,0-101.85-32.21t-36.56-82.7q0-53.09,40.48-81.83T3036,1667.6h146.25q0-3.46-37.43-10t-38.31-9.14q-13-40-74.87-40a181,181,0,0,0-64.42,12.19q-16.55,7-32.64.87a42.88,42.88,0,0,1-23.94-21.76l-23.5-47q31.34-20.89,75.3-32.21A353.3,353.3,0,0,1,3050.83,1509.16Zm-4.36,301.21q48.75,0,63.55-42.66V1735.5h-55.71q-56.59,0-56.59,37.44a33.39,33.39,0,0,0,12.63,27Q3023,1810.38,3046.47,1810.37Z" transform="translate(-1062.53 -1378.58)" style="fill:#603913"/><path d="M3366,1584q46.13-46.14,85.75-60.5t89.23-14.37v117.52q-17.43-1.73-28.73-1.74-41.79,0-65.73,22.2t-23.94,69.21V1853.9q0,13.93-9.14,23.5t-23.07,9.58h-97.5V1546.59a28.83,28.83,0,0,1,9.14-21.76,30,30,0,0,1,21.33-8.7h93.15Z" transform="translate(-1062.53 -1378.58)" style="fill:#603913"/><path d="M3488,1819.64h-14.76v-5.33h35.93v5.33h-14.84v43.2H3488Z" transform="translate(-1062.53 -1378.58)" style="fill:#231f20"/><path d="M3555.5,1841.53c-.36-6.77-.79-14.91-.72-21h-.21c-1.66,5.69-3.67,11.74-6.12,18.44l-8.57,23.54h-4.75l-7.85-23.11c-2.31-6.84-4.25-13.11-5.62-18.87h-.14c-.15,6-.51,14.19-.94,21.46l-1.3,20.81h-6l3.38-48.53h8l8.29,23.47c2,6,3.67,11.31,4.89,16.35h.22c1.22-4.9,3-10.23,5.11-16.35l8.64-23.47h8l3,48.53h-6.12Z" transform="translate(-1062.53 -1378.58)" style="fill:#231f20"/><path d="M2001.9,1407.76c12-7-143.57,83.8-175.19,91.63S2036,1437,2036,1437Z" transform="translate(-1062.53 -1378.58)" style="fill:#603913"/></g></svg>