<svg width="1440" height="6902" viewBox="0 0 1440 6902" fill="none" xmlns="http://www.w3.org/2000/svg">
<g opacity="0.2" filter="url(#filter0_f_2_863)">
<circle r="150" transform="matrix(1 0 0 -1 -76 6731)" fill="#BE229C"/>
</g>
<g opacity="0.2" filter="url(#filter1_f_2_863)">
<circle r="150" transform="matrix(1 0 0 -1 64 3981)" fill="#BE229C"/>
</g>
<g opacity="0.2" filter="url(#filter2_f_2_863)">
<circle r="150" transform="matrix(1 0 0 -1 84 2543)" fill="#BE229C"/>
</g>
<g opacity="0.2" filter="url(#filter3_f_2_863)">
<circle r="150" transform="matrix(1 0 0 -1 -27 4984)" fill="#BE229C"/>
</g>
<g opacity="0.2" filter="url(#filter4_f_2_863)">
<circle r="150" transform="matrix(1 0 0 -1 -34 5739)" fill="#BE229C"/>
</g>
<g opacity="0.2" filter="url(#filter5_f_2_863)">
<circle r="150" transform="matrix(1 0 0 -1 852 3981)" fill="#FFC93E"/>
</g>
<g opacity="0.2" filter="url(#filter6_f_2_863)">
<circle r="150" transform="matrix(1 0 0 -1 872 2543)" fill="#FFC93E"/>
</g>
<g opacity="0.2" filter="url(#filter7_f_2_863)">
<circle r="150" transform="matrix(1 0 0 -1 761 4984)" fill="#FFC93E"/>
</g>
<g opacity="0.2" filter="url(#filter8_f_2_863)">
<circle r="150" transform="matrix(1 0 0 -1 754 5739)" fill="#FFC93E"/>
</g>
<path d="M946 247L949.491 269.194L971.679 265.657L951.649 275.836L961.87 295.843L946 279.94L930.13 295.843L940.351 275.836L920.321 265.657L942.509 269.194L946 247Z" fill="white"/>
<path d="M1003.11 6408.57C1003.57 6408.37 1004.02 6408.18 1004.48 6408H1057.52C1057.98 6408.18 1058.43 6408.37 1058.89 6408.57H1003.11Z" fill="#0A142F"/>
<path d="M992.441 6414.25C992.737 6414.06 993.035 6413.87 993.334 6413.68H1068.67C1068.97 6413.87 1069.26 6414.06 1069.56 6414.25H992.441Z" fill="#0A142F"/>
<path d="M984.83 6419.94C985.053 6419.75 985.277 6419.56 985.502 6419.37H1076.5C1076.72 6419.56 1076.95 6419.75 1077.17 6419.94H984.83Z" fill="#0A142F"/>
<path d="M978.915 6425.62C979.092 6425.43 979.27 6425.24 979.448 6425.05H1082.55C1082.73 6425.24 1082.91 6425.43 1083.08 6425.62H978.915Z" fill="#0A142F"/>
<path d="M974.166 6431.31C974.309 6431.12 974.453 6430.93 974.598 6430.74H1087.4C1087.55 6430.93 1087.69 6431.12 1087.83 6431.31H974.166Z" fill="#0A142F"/>
<path d="M970.312 6436.99C970.428 6436.8 970.544 6436.61 970.662 6436.42H1091.34C1091.46 6436.61 1091.57 6436.8 1091.69 6436.99H970.312Z" fill="#0A142F"/>
<path d="M967.192 6442.68C967.286 6442.49 967.38 6442.3 967.474 6442.11H1094.53C1094.62 6442.3 1094.71 6442.49 1094.81 6442.68H967.192Z" fill="#0A142F"/>
<path d="M964.707 6448.36C964.78 6448.17 964.854 6447.98 964.929 6447.79H1097.07C1097.15 6447.98 1097.22 6448.17 1097.29 6448.36H964.707Z" fill="#0A142F"/>
<path d="M962.787 6454.05C962.842 6453.86 962.898 6453.67 962.955 6453.48H1099.05C1099.1 6453.67 1099.16 6453.86 1099.21 6454.05H962.787Z" fill="#0A142F"/>
<path d="M961.385 6459.73C961.424 6459.54 961.463 6459.35 961.503 6459.16H1100.5C1100.54 6459.35 1100.58 6459.54 1100.61 6459.73H961.385Z" fill="#0A142F"/>
<path d="M960.471 6465.41C960.493 6465.23 960.517 6465.04 960.541 6464.85H1101.46C1101.48 6465.04 1101.51 6465.23 1101.53 6465.41H960.471Z" fill="#0A142F"/>
<path d="M960.02 6471.1C960.028 6470.91 960.036 6470.72 960.045 6470.53H1101.96C1101.96 6470.72 1101.97 6470.91 1101.98 6471.1H960.02Z" fill="#0A142F"/>
<path d="M960.02 6476.78C960.013 6476.59 960.006 6476.41 960 6476.22H1102C1101.99 6476.41 1101.99 6476.59 1101.98 6476.78H960.02Z" fill="#0A142F"/>
<path d="M960.471 6482.47C960.448 6482.28 960.426 6482.09 960.405 6481.9H1101.6C1101.57 6482.09 1101.55 6482.28 1101.53 6482.47H960.471Z" fill="#0A142F"/>
<path d="M961.385 6488.15C961.347 6487.96 961.309 6487.77 961.272 6487.59H1100.73C1100.69 6487.77 1100.65 6487.96 1100.61 6488.15H961.385Z" fill="#0A142F"/>
<path d="M962.787 6493.84C962.731 6493.65 962.677 6493.46 962.624 6493.27H1099.38C1099.32 6493.46 1099.27 6493.65 1099.21 6493.84H962.787Z" fill="#0A142F"/>
<path d="M964.707 6499.52C964.634 6499.33 964.561 6499.14 964.49 6498.95H1097.51C1097.44 6499.14 1097.37 6499.33 1097.29 6499.52H964.707Z" fill="#0A142F"/>
<path d="M967.192 6505.21C967.1 6505.02 967.008 6504.83 966.917 6504.64H1095.08C1094.99 6504.83 1094.9 6505.02 1094.81 6505.21H967.192Z" fill="#0A142F"/>
<path d="M970.312 6510.89C970.196 6510.7 970.082 6510.51 969.969 6510.32H1092.03C1091.92 6510.51 1091.8 6510.7 1091.69 6510.89H970.312Z" fill="#0A142F"/>
<path d="M974.166 6516.58C974.025 6516.39 973.884 6516.2 973.744 6516.01H1088.26C1088.12 6516.2 1087.98 6516.39 1087.83 6516.58H974.166Z" fill="#0A142F"/>
<path d="M978.915 6522.26C978.74 6522.07 978.567 6521.88 978.394 6521.69H1083.61C1083.43 6521.88 1083.26 6522.07 1083.08 6522.26H978.915Z" fill="#0A142F"/>
<path d="M984.83 6527.95C984.61 6527.76 984.392 6527.57 984.174 6527.38H1077.83C1077.61 6527.57 1077.39 6527.76 1077.17 6527.95H984.83Z" fill="#0A142F"/>
<path d="M992.441 6533.63C992.152 6533.44 991.864 6533.25 991.578 6533.06H1070.42C1070.14 6533.25 1069.85 6533.44 1069.56 6533.63H992.441Z" fill="#0A142F"/>
<path d="M1003.11 6539.32C1002.68 6539.13 1002.25 6538.94 1001.82 6538.75H1060.18C1059.75 6538.94 1059.32 6539.13 1058.89 6539.32H1003.11Z" fill="#0A142F"/>
<path d="M1040.03 6544.43C1037.07 6544.81 1034.06 6545 1031 6545C1027.94 6545 1024.93 6544.81 1021.97 6544.43H1040.03Z" fill="#0A142F"/>
<path d="M1002.72 579.577C1003.18 579.38 1003.64 579.188 1004.11 579H1057.89C1058.36 579.188 1058.82 579.38 1059.28 579.577H1002.72Z" fill="#3F4147"/>
<path d="M991.898 585.344C992.198 585.15 992.5 584.958 992.803 584.768H1069.2C1069.5 584.958 1069.8 585.15 1070.1 585.344H991.898Z" fill="#3F4147"/>
<path d="M984.18 591.112C984.406 590.918 984.633 590.726 984.862 590.535H1077.14C1077.37 590.726 1077.59 590.918 1077.82 591.112H984.18Z" fill="#3F4147"/>
<path d="M978.182 596.88C978.361 596.686 978.541 596.494 978.722 596.303H1083.28C1083.46 596.494 1083.64 596.686 1083.82 596.88H978.182Z" fill="#3F4147"/>
<path d="M973.366 602.647C973.511 602.454 973.656 602.262 973.803 602.071H1088.2C1088.34 602.262 1088.49 602.454 1088.63 602.647H973.366Z" fill="#3F4147"/>
<path d="M969.457 608.415C969.574 608.222 969.693 608.03 969.812 607.838H1092.19C1092.31 608.03 1092.43 608.222 1092.54 608.415H969.457Z" fill="#3F4147"/>
<path d="M966.294 614.183C966.388 613.99 966.483 613.798 966.58 613.606H1095.42C1095.52 613.798 1095.61 613.99 1095.71 614.183H966.294Z" fill="#3F4147"/>
<path d="M963.773 619.95C963.847 619.758 963.922 619.565 963.998 619.373H1098C1098.08 619.565 1098.15 619.758 1098.23 619.95H963.773Z" fill="#3F4147"/>
<path d="M961.826 625.718C961.882 625.525 961.939 625.333 961.996 625.141H1100C1100.06 625.333 1100.12 625.525 1100.17 625.718H961.826Z" fill="#3F4147"/>
<path d="M960.405 631.485C960.444 631.293 960.484 631.101 960.524 630.909H1101.48C1101.52 631.101 1101.56 631.293 1101.6 631.485H960.405Z" fill="#3F4147"/>
<path d="M959.477 637.253C959.5 637.061 959.524 636.868 959.548 636.676H1102.45C1102.48 636.868 1102.5 637.061 1102.52 637.253H959.477Z" fill="#3F4147"/>
<path d="M959.02 643.021C959.028 642.828 959.036 642.636 959.045 642.444H1102.95C1102.96 642.636 1102.97 642.828 1102.98 643.021H959.02Z" fill="#3F4147"/>
<path d="M959.02 648.788C959.013 648.596 959.006 648.404 959 648.212H1103C1102.99 648.404 1102.99 648.596 1102.98 648.788H959.02Z" fill="#3F4147"/>
<path d="M959.477 654.556C959.454 654.364 959.432 654.172 959.411 653.979H1102.59C1102.57 654.172 1102.55 654.364 1102.52 654.556H959.477Z" fill="#3F4147"/>
<path d="M960.405 660.324C960.366 660.132 960.328 659.939 960.29 659.747H1101.71C1101.67 659.939 1101.63 660.132 1101.6 660.324H960.405Z" fill="#3F4147"/>
<path d="M961.826 666.091C961.77 665.899 961.715 665.707 961.661 665.515H1100.34C1100.29 665.707 1100.23 665.899 1100.17 666.091H961.826Z" fill="#3F4147"/>
<path d="M963.773 671.859C963.699 671.667 963.626 671.475 963.553 671.282H1098.45C1098.37 671.475 1098.3 671.667 1098.23 671.859H963.773Z" fill="#3F4147"/>
<path d="M966.294 677.627C966.2 677.435 966.106 677.243 966.014 677.05H1095.99C1095.89 677.243 1095.8 677.435 1095.71 677.627H966.294Z" fill="#3F4147"/>
<path d="M969.457 683.394C969.34 683.203 969.224 683.01 969.109 682.817H1092.89C1092.78 683.01 1092.66 683.203 1092.54 683.394H969.457Z" fill="#3F4147"/>
<path d="M973.366 689.162C973.222 688.97 973.079 688.778 972.937 688.585H1089.06C1088.92 688.778 1088.78 688.97 1088.63 689.162H973.366Z" fill="#3F4147"/>
<path d="M978.182 694.929C978.004 694.738 977.828 694.546 977.653 694.353H1084.35C1084.17 694.546 1084 694.738 1083.82 694.929H978.182Z" fill="#3F4147"/>
<path d="M984.18 700.697C983.957 700.506 983.735 700.314 983.515 700.12H1078.49C1078.26 700.314 1078.04 700.506 1077.82 700.697H984.18Z" fill="#3F4147"/>
<path d="M991.898 706.465C991.605 706.275 991.313 706.082 991.022 705.888H1070.98C1070.69 706.082 1070.4 706.275 1070.1 706.465H991.898Z" fill="#3F4147"/>
<path d="M1002.72 712.232C1002.28 712.044 1001.84 711.852 1001.41 711.656H1060.59C1060.16 711.852 1059.72 712.044 1059.28 712.232H1002.72Z" fill="#3F4147"/>
<path d="M1040.16 717.423C1037.16 717.804 1034.1 718 1031 718C1027.9 718 1024.84 717.804 1021.84 717.423H1040.16Z" fill="#3F4147"/>
<defs>
<filter id="filter0_f_2_863" x="-726" y="6081" width="1300" height="1300" filterUnits="userSpaceOnUse" color-interpolation-filters="sRGB">
<feFlood flood-opacity="0" result="BackgroundImageFix"/>
<feBlend mode="normal" in="SourceGraphic" in2="BackgroundImageFix" result="shape"/>
<feGaussianBlur stdDeviation="250" result="effect1_foregroundBlur_2_863"/>
</filter>
<filter id="filter1_f_2_863" x="-586" y="3331" width="1300" height="1300" filterUnits="userSpaceOnUse" color-interpolation-filters="sRGB">
<feFlood flood-opacity="0" result="BackgroundImageFix"/>
<feBlend mode="normal" in="SourceGraphic" in2="BackgroundImageFix" result="shape"/>
<feGaussianBlur stdDeviation="250" result="effect1_foregroundBlur_2_863"/>
</filter>
<filter id="filter2_f_2_863" x="-566" y="1893" width="1300" height="1300" filterUnits="userSpaceOnUse" color-interpolation-filters="sRGB">
<feFlood flood-opacity="0" result="BackgroundImageFix"/>
<feBlend mode="normal" in="SourceGraphic" in2="BackgroundImageFix" result="shape"/>
<feGaussianBlur stdDeviation="250" result="effect1_foregroundBlur_2_863"/>
</filter>
<filter id="filter3_f_2_863" x="-677" y="4334" width="1300" height="1300" filterUnits="userSpaceOnUse" color-interpolation-filters="sRGB">
<feFlood flood-opacity="0" result="BackgroundImageFix"/>
<feBlend mode="normal" in="SourceGraphic" in2="BackgroundImageFix" result="shape"/>
<feGaussianBlur stdDeviation="250" result="effect1_foregroundBlur_2_863"/>
</filter>
<filter id="filter4_f_2_863" x="-684" y="5089" width="1300" height="1300" filterUnits="userSpaceOnUse" color-interpolation-filters="sRGB">
<feFlood flood-opacity="0" result="BackgroundImageFix"/>
<feBlend mode="normal" in="SourceGraphic" in2="BackgroundImageFix" result="shape"/>
<feGaussianBlur stdDeviation="250" result="effect1_foregroundBlur_2_863"/>
</filter>
<filter id="filter5_f_2_863" x="202" y="3331" width="1300" height="1300" filterUnits="userSpaceOnUse" color-interpolation-filters="sRGB">
<feFlood flood-opacity="0" result="BackgroundImageFix"/>
<feBlend mode="normal" in="SourceGraphic" in2="BackgroundImageFix" result="shape"/>
<feGaussianBlur stdDeviation="250" result="effect1_foregroundBlur_2_863"/>
</filter>
<filter id="filter6_f_2_863" x="222" y="1893" width="1300" height="1300" filterUnits="userSpaceOnUse" color-interpolation-filters="sRGB">
<feFlood flood-opacity="0" result="BackgroundImageFix"/>
<feBlend mode="normal" in="SourceGraphic" in2="BackgroundImageFix" result="shape"/>
<feGaussianBlur stdDeviation="250" result="effect1_foregroundBlur_2_863"/>
</filter>
<filter id="filter7_f_2_863" x="111" y="4334" width="1300" height="1300" filterUnits="userSpaceOnUse" color-interpolation-filters="sRGB">
<feFlood flood-opacity="0" result="BackgroundImageFix"/>
<feBlend mode="normal" in="SourceGraphic" in2="BackgroundImageFix" result="shape"/>
<feGaussianBlur stdDeviation="250" result="effect1_foregroundBlur_2_863"/>
</filter>
<filter id="filter8_f_2_863" x="104" y="5089" width="1300" height="1300" filterUnits="userSpaceOnUse" color-interpolation-filters="sRGB">
<feFlood flood-opacity="0" result="BackgroundImageFix"/>
<feBlend mode="normal" in="SourceGraphic" in2="BackgroundImageFix" result="shape"/>
<feGaussianBlur stdDeviation="250" result="effect1_foregroundBlur_2_863"/>
</filter>
</defs>
</svg>
